<mxfile host="drawio-plugin" modified="2025-03-01T15:49:27.690Z" agent="5.0 (Windows NT 6.2; Win64; x64) AppleWebKit/537.36 (KHTML, like Gecko) Chrome/104.0.5112.102 Safari/537.36" etag="VoWBBksySd18omnrpIrJ" version="20.5.3" type="embed"><diagram id="23iRSUPoRavnBvh4doch" name="Page-1"><mxGraphModel dx="2707" dy="-565" grid="1" gridSize="10" guides="1" tooltips="1" connect="1" arrows="1" fold="1" page="1" pageScale="1" pageWidth="827" pageHeight="1169" math="0" shadow="0"><root><mxCell id="0"/><mxCell id="1" parent="0"/><mxCell id="2" style="edgeStyle=orthogonalEdgeStyle;rounded=0;orthogonalLoop=1;jettySize=auto;html=1;entryX=0;entryY=0.5;entryDx=0;entryDy=0;endArrow=none;startFill=0;" edge="1" parent="1"><mxGeometry relative="1" as="geometry"><mxPoint x="-2250" y="2240" as="sourcePoint"/><mxPoint x="-2000" y="2240" as="targetPoint"/></mxGeometry></mxCell><mxCell id="3" value="User" style="shape=umlActor;verticalLabelPosition=bottom;verticalAlign=top;html=1;outlineConnect=0;" vertex="1" parent="1"><mxGeometry x="-2290" y="2200" width="35" height="70" as="geometry"/></mxCell><mxCell id="4" value=":Frontend" style="rounded=0;whiteSpace=wrap;html=1;" vertex="1" parent="1"><mxGeometry x="-2000" y="2215" width="130.91" height="40" as="geometry"/></mxCell><mxCell id="5" value="" style="endArrow=classic;html=1;rounded=0;" edge="1" parent="1"><mxGeometry width="50" height="50" relative="1" as="geometry"><mxPoint x="-2240" y="2225" as="sourcePoint"/><mxPoint x="-2019.9999999999998" y="2225" as="targetPoint"/></mxGeometry></mxCell><mxCell id="6" value="" style="endArrow=classic;html=1;rounded=0;dashed=1;" edge="1" parent="1"><mxGeometry width="50" height="50" relative="1" as="geometry"><mxPoint x="-2029.9999999999998" y="2255" as="sourcePoint"/><mxPoint x="-2240" y="2255" as="targetPoint"/></mxGeometry></mxCell><mxCell id="7" value="&amp;nbsp;:Router" style="rounded=0;whiteSpace=wrap;html=1;" vertex="1" parent="1"><mxGeometry x="-1660" y="2215" width="130.91" height="40" as="geometry"/></mxCell><mxCell id="8" style="edgeStyle=orthogonalEdgeStyle;rounded=0;orthogonalLoop=1;jettySize=auto;html=1;entryX=0;entryY=0.5;entryDx=0;entryDy=0;endArrow=none;startFill=0;" edge="1" parent="1" target="7"><mxGeometry relative="1" as="geometry"><mxPoint x="-1869.09" y="2235" as="sourcePoint"/><mxPoint x="-1664.09" y="2235" as="targetPoint"/></mxGeometry></mxCell><mxCell id="9" value="" style="endArrow=classic;html=1;rounded=0;" edge="1" parent="1"><mxGeometry width="50" height="50" relative="1" as="geometry"><mxPoint x="-1844.09" y="2220" as="sourcePoint"/><mxPoint x="-1684.09" y="2220" as="targetPoint"/></mxGeometry></mxCell><mxCell id="10" value="&amp;nbsp;" style="text;whiteSpace=wrap;html=1;" vertex="1" parent="1"><mxGeometry x="-1760" y="2200" width="40" height="40" as="geometry"/></mxCell><mxCell id="11" value=":ClassController&amp;nbsp;" style="rounded=0;whiteSpace=wrap;html=1;" vertex="1" parent="1"><mxGeometry x="-1169.09" y="2215" width="130.91" height="40" as="geometry"/></mxCell><mxCell id="12" style="edgeStyle=orthogonalEdgeStyle;rounded=0;orthogonalLoop=1;jettySize=auto;html=1;entryX=0;entryY=0.5;entryDx=0;entryDy=0;endArrow=none;startFill=0;" edge="1" parent="1" target="11"><mxGeometry relative="1" as="geometry"><mxPoint x="-1529.09" y="2235" as="sourcePoint"/><mxPoint x="-1324.09" y="2235" as="targetPoint"/></mxGeometry></mxCell><mxCell id="13" value="" style="endArrow=classic;html=1;rounded=0;" edge="1" parent="1"><mxGeometry width="50" height="50" relative="1" as="geometry"><mxPoint x="-1504.09" y="2220" as="sourcePoint"/><mxPoint x="-1190" y="2220" as="targetPoint"/></mxGeometry></mxCell><mxCell id="14" value="" style="endArrow=classic;html=1;rounded=0;dashed=1;" edge="1" parent="1"><mxGeometry width="50" height="50" relative="1" as="geometry"><mxPoint x="-1190" y="2250" as="sourcePoint"/><mxPoint x="-1510" y="2250" as="targetPoint"/></mxGeometry></mxCell><mxCell id="15" value=":ClassService&amp;nbsp;" style="rounded=0;whiteSpace=wrap;html=1;" vertex="1" parent="1"><mxGeometry x="-709.09" y="2215" width="130.91" height="40" as="geometry"/></mxCell><mxCell id="16" style="edgeStyle=orthogonalEdgeStyle;rounded=0;orthogonalLoop=1;jettySize=auto;html=1;entryX=0;entryY=0.5;entryDx=0;entryDy=0;endArrow=none;startFill=0;" edge="1" parent="1" target="15"><mxGeometry relative="1" as="geometry"><mxPoint x="-1038.1799999999998" y="2235" as="sourcePoint"/><mxPoint x="-833.18" y="2235" as="targetPoint"/></mxGeometry></mxCell><mxCell id="17" value="" style="endArrow=classic;html=1;rounded=0;" edge="1" parent="1"><mxGeometry width="50" height="50" relative="1" as="geometry"><mxPoint x="-1013.18" y="2220" as="sourcePoint"/><mxPoint x="-719.09" y="2220" as="targetPoint"/></mxGeometry></mxCell><mxCell id="18" value="" style="endArrow=classic;html=1;rounded=0;dashed=1;" edge="1" parent="1"><mxGeometry width="50" height="50" relative="1" as="geometry"><mxPoint x="-719.09" y="2250" as="sourcePoint"/><mxPoint x="-1019.09" y="2250" as="targetPoint"/></mxGeometry></mxCell><mxCell id="19" style="edgeStyle=orthogonalEdgeStyle;rounded=0;orthogonalLoop=1;jettySize=auto;html=1;endArrow=none;startFill=0;" edge="1" parent="1" source="20"><mxGeometry relative="1" as="geometry"><mxPoint x="170.91" y="2235" as="targetPoint"/></mxGeometry></mxCell><mxCell id="20" value=":ClassRepository" style="rounded=0;whiteSpace=wrap;html=1;" vertex="1" parent="1"><mxGeometry x="-369.0899999999999" y="2215" width="130.91" height="40" as="geometry"/></mxCell><mxCell id="21" style="edgeStyle=orthogonalEdgeStyle;rounded=0;orthogonalLoop=1;jettySize=auto;html=1;entryX=0;entryY=0.5;entryDx=0;entryDy=0;endArrow=none;startFill=0;" edge="1" parent="1" target="20"><mxGeometry relative="1" as="geometry"><mxPoint x="-578.1799999999998" y="2235" as="sourcePoint"/><mxPoint x="-373.17999999999984" y="2235" as="targetPoint"/></mxGeometry></mxCell><mxCell id="22" value="" style="endArrow=classic;html=1;rounded=0;" edge="1" parent="1"><mxGeometry width="50" height="50" relative="1" as="geometry"><mxPoint x="-553.18" y="2220" as="sourcePoint"/><mxPoint x="-393.1799999999997" y="2220" as="targetPoint"/></mxGeometry></mxCell><mxCell id="23" value="" style="endArrow=classic;html=1;rounded=0;dashed=1;" edge="1" parent="1"><mxGeometry width="50" height="50" relative="1" as="geometry"><mxPoint x="-389.09000000000003" y="2250" as="sourcePoint"/><mxPoint x="-549.09" y="2250" as="targetPoint"/></mxGeometry></mxCell><mxCell id="24" value="GET /api/classes?admin=true&lt;div&gt;POST /api/classes/edit (classID, updatedData)&lt;/div&gt;" style="text;html=1;align=center;verticalAlign=middle;resizable=0;points=[];autosize=1;strokeColor=none;fillColor=none;" vertex="1" parent="1"><mxGeometry x="-1905" y="2175" width="270" height="40" as="geometry"/></mxCell><mxCell id="25" value="&amp;nbsp;:Database" style="rounded=0;whiteSpace=wrap;html=1;" vertex="1" parent="1"><mxGeometry x="130.00000000000014" y="2215" width="130.91" height="40" as="geometry"/></mxCell><mxCell id="26" value="Edit Class" style="text;html=1;align=center;verticalAlign=middle;whiteSpace=wrap;rounded=0;fontSize=20;" vertex="1" parent="1"><mxGeometry x="-1291.59" y="2050" width="345" height="30" as="geometry"/></mxCell><mxCell id="27" value="selectClass(classID)&lt;br&gt;submitEditForm(updated Data, classID)" style="text;html=1;align=center;verticalAlign=middle;resizable=0;points=[];autosize=1;strokeColor=none;fillColor=none;" vertex="1" parent="1"><mxGeometry x="-2240" y="2160" width="230" height="40" as="geometry"/></mxCell><mxCell id="28" value="" style="endArrow=classic;html=1;rounded=0;dashed=1;" edge="1" parent="1"><mxGeometry width="50" height="50" relative="1" as="geometry"><mxPoint x="-1684.09" y="2250" as="sourcePoint"/><mxPoint x="-1844.09" y="2250" as="targetPoint"/></mxGeometry></mxCell><mxCell id="29" value="" style="endArrow=classic;html=1;rounded=0;" edge="1" parent="1"><mxGeometry width="50" height="50" relative="1" as="geometry"><mxPoint x="-219.08999999999995" y="2219.38" as="sourcePoint"/><mxPoint x="150.91000000000003" y="2220" as="targetPoint"/></mxGeometry></mxCell><mxCell id="30" value="" style="endArrow=classic;html=1;rounded=0;dashed=1;" edge="1" parent="1"><mxGeometry width="50" height="50" relative="1" as="geometry"><mxPoint x="140.91000000000003" y="2250" as="sourcePoint"/><mxPoint x="-219.09" y="2250" as="targetPoint"/></mxGeometry></mxCell><mxCell id="31" value="&amp;nbsp;" style="text;html=1;align=center;verticalAlign=middle;resizable=0;points=[];autosize=1;strokeColor=none;fillColor=none;" vertex="1" parent="1"><mxGeometry x="-1430" y="2265" width="30" height="30" as="geometry"/></mxCell><mxCell id="32" value="successResponse(200, classList)&lt;div&gt;errorResponse(400, &quot;Data incomplete/incorrect&quot;)&lt;/div&gt;&lt;div&gt;errorResponse(500, &quot;Edit failed&quot;)&lt;/div&gt;&lt;div&gt;successResponse(200, &quot;Edit class successful&quot;, updatedClass)&lt;/div&gt;" style="text;html=1;align=center;verticalAlign=middle;resizable=0;points=[];autosize=1;strokeColor=none;fillColor=none;" vertex="1" parent="1"><mxGeometry x="-1945" y="2250" width="350" height="70" as="geometry"/></mxCell><mxCell id="33" value="displayClassList(classList)&lt;div&gt;displayMessage(&quot;Edit class successful&quot;)&lt;/div&gt;" style="text;html=1;align=center;verticalAlign=middle;resizable=0;points=[];autosize=1;strokeColor=none;fillColor=none;" vertex="1" parent="1"><mxGeometry x="-2245" y="2265" width="240" height="40" as="geometry"/></mxCell><mxCell id="34" style="edgeStyle=orthogonalEdgeStyle;rounded=0;orthogonalLoop=1;jettySize=auto;html=1;entryX=0.5;entryY=1;entryDx=0;entryDy=0;endArrow=none;startFill=0;" edge="1" parent="1" source="35"><mxGeometry relative="1" as="geometry"><mxPoint x="-1595.91" y="2255" as="targetPoint"/></mxGeometry></mxCell><mxCell id="35" value="&amp;nbsp;:Middleware" style="rounded=0;whiteSpace=wrap;html=1;" vertex="1" parent="1"><mxGeometry x="-1660.91" y="2490" width="130.91" height="40" as="geometry"/></mxCell><mxCell id="36" value="" style="endArrow=classic;html=1;rounded=0;" edge="1" parent="1"><mxGeometry width="50" height="50" relative="1" as="geometry"><mxPoint x="-1611" y="2280" as="sourcePoint"/><mxPoint x="-1610.91" y="2480" as="targetPoint"/></mxGeometry></mxCell><mxCell id="37" value="" style="endArrow=classic;html=1;rounded=0;dashed=1;" edge="1" parent="1"><mxGeometry width="50" height="50" relative="1" as="geometry"><mxPoint x="-1580.91" y="2480" as="sourcePoint"/><mxPoint x="-1580.91" y="2280" as="targetPoint"/></mxGeometry></mxCell><mxCell id="38" value="validateSession()&lt;div&gt;validateRequest()&lt;/div&gt;" style="text;html=1;align=center;verticalAlign=middle;resizable=0;points=[];autosize=1;strokeColor=none;fillColor=none;" vertex="1" parent="1"><mxGeometry x="-1735" y="2390" width="120" height="40" as="geometry"/></mxCell><mxCell id="39" value="" style="endArrow=classic;html=1;rounded=0;exitX=0.25;exitY=0;exitDx=0;exitDy=0;entryX=0.75;entryY=0;entryDx=0;entryDy=0;" edge="1" parent="1" source="11" target="11"><mxGeometry width="50" height="50" relative="1" as="geometry"><mxPoint x="-1169.09" y="2190" as="sourcePoint"/><mxPoint x="-1039.09" y="2170" as="targetPoint"/><Array as="points"><mxPoint x="-1135.35" y="2180"/><mxPoint x="-1135.0900000000001" y="2170"/><mxPoint x="-1069.09" y="2170"/></Array></mxGeometry></mxCell><mxCell id="40" value="validateUpdatedData&amp;nbsp;" style="text;html=1;align=center;verticalAlign=middle;resizable=0;points=[];autosize=1;strokeColor=none;fillColor=none;" vertex="1" parent="1"><mxGeometry x="-1173.63" y="2125" width="140" height="30" as="geometry"/></mxCell><mxCell id="41" value="successResponse(200, classList)&lt;div&gt;[invalidData (7.1a)] returnError(&quot;Data incomplete/incorrect&quot;)&lt;/div&gt;&lt;div&gt;errorResponse(500, &quot;Edit failed&quot;)&lt;/div&gt;&lt;div&gt;successResponse(200, &quot;Edit class successful&quot;, updatedClass)&lt;/div&gt;" style="text;html=1;align=center;verticalAlign=middle;resizable=0;points=[];autosize=1;strokeColor=none;fillColor=none;" vertex="1" parent="1"><mxGeometry x="-1530" y="2245" width="350" height="70" as="geometry"/></mxCell><mxCell id="42" style="edgeStyle=orthogonalEdgeStyle;rounded=0;orthogonalLoop=1;jettySize=auto;html=1;endArrow=none;startFill=0;exitX=1;exitY=0.5;exitDx=0;exitDy=0;" edge="1" parent="1" source="35"><mxGeometry relative="1" as="geometry"><mxPoint x="-1100" y="2256" as="targetPoint"/><mxPoint x="-1424.79" y="2545" as="sourcePoint"/><Array as="points"><mxPoint x="-1490" y="2510"/><mxPoint x="-1490" y="2420"/><mxPoint x="-1100" y="2420"/><mxPoint x="-1100" y="2256"/></Array></mxGeometry></mxCell><mxCell id="43" value="getAdminClasses(userID)&lt;div&gt;editClass(classID, updated Data)&lt;/div&gt;" style="text;html=1;align=center;verticalAlign=middle;resizable=0;points=[];autosize=1;strokeColor=none;fillColor=none;" vertex="1" parent="1"><mxGeometry x="-1395" y="2360" width="200" height="40" as="geometry"/></mxCell><mxCell id="44" value="&amp;nbsp;" style="text;html=1;align=center;verticalAlign=middle;resizable=0;points=[];autosize=1;strokeColor=none;fillColor=none;" vertex="1" parent="1"><mxGeometry x="-883.1800000000001" y="2180" width="30" height="30" as="geometry"/></mxCell><mxCell id="45" value="selectClassesByAdmin(userID)&lt;div&gt;updateClass(classID, updatedData)&lt;/div&gt;" style="text;html=1;align=center;verticalAlign=middle;resizable=0;points=[];autosize=1;strokeColor=none;fillColor=none;" vertex="1" parent="1"><mxGeometry x="-573.1800000000001" y="2180" width="210" height="40" as="geometry"/></mxCell><mxCell id="46" value="SELECT id, name, description, privacy FROM classes WHERE owner_id=?&lt;div&gt;UPDATE classes SET name=?, description=?, privacy=? WHERE id=?&lt;/div&gt;" style="text;html=1;align=center;verticalAlign=middle;resizable=0;points=[];autosize=1;strokeColor=none;fillColor=none;" vertex="1" parent="1"><mxGeometry x="-224.09" y="2180" width="420" height="40" as="geometry"/></mxCell><mxCell id="47" value="classList&lt;div&gt;affectedRows&lt;/div&gt;" style="text;html=1;align=center;verticalAlign=middle;resizable=0;points=[];autosize=1;strokeColor=none;fillColor=none;" vertex="1" parent="1"><mxGeometry x="-74.09" y="2255" width="100" height="40" as="geometry"/></mxCell><mxCell id="48" value="classList&lt;br&gt;[updateFailure (5.1 a)] returnError(&quot;Edit failed&quot;)&lt;div&gt;[updateSuccess (5.1)] returnClassRecord(updateClass)&lt;/div&gt;" style="text;html=1;align=center;verticalAlign=middle;resizable=0;points=[];autosize=1;strokeColor=none;fillColor=none;" vertex="1" parent="1"><mxGeometry x="-629.09" y="2250" width="320" height="60" as="geometry"/></mxCell><mxCell id="49" value="classList&amp;nbsp;&lt;div&gt;returnError(&quot;Edit failed&quot;)&lt;/div&gt;&lt;div&gt;&amp;nbsp;returnClassRecord(updateClass)&lt;/div&gt;" style="text;html=1;align=center;verticalAlign=middle;resizable=0;points=[];autosize=1;strokeColor=none;fillColor=none;" vertex="1" parent="1"><mxGeometry x="-968.1800000000001" y="2250" width="200" height="60" as="geometry"/></mxCell><mxCell id="50" value="getAdminClasses(userID)&lt;div&gt;[validData(7.1)] editClass(classID, updatedData)&lt;/div&gt;" style="text;html=1;align=center;verticalAlign=middle;resizable=0;points=[];autosize=1;strokeColor=none;fillColor=none;" vertex="1" parent="1"><mxGeometry x="-1008.1800000000001" y="2175" width="280" height="40" as="geometry"/></mxCell><mxCell id="51" value="" style="endArrow=classic;html=1;rounded=0;" edge="1" parent="1"><mxGeometry width="50" height="50" relative="1" as="geometry"><mxPoint x="-1519.09" y="2496" as="sourcePoint"/><mxPoint x="-1120" y="2265" as="targetPoint"/><Array as="points"><mxPoint x="-1499.09" y="2496"/><mxPoint x="-1499.09" y="2406"/><mxPoint x="-1120" y="2410"/><mxPoint x="-1120" y="2330"/></Array></mxGeometry></mxCell><mxCell id="52" value="" style="endArrow=classic;html=1;rounded=0;exitX=0.25;exitY=0;exitDx=0;exitDy=0;entryX=0.75;entryY=0;entryDx=0;entryDy=0;" edge="1" parent="1"><mxGeometry width="50" height="50" relative="1" as="geometry"><mxPoint x="-677.0899999999999" y="2215" as="sourcePoint"/><mxPoint x="-612.0899999999999" y="2215" as="targetPoint"/><Array as="points"><mxPoint x="-676.44" y="2180"/><mxPoint x="-676.1800000000001" y="2170"/><mxPoint x="-610.1800000000001" y="2170"/></Array></mxGeometry></mxCell><mxCell id="53" value="22. verifyCurrentPassword(userId, currentPassword)" style="text;html=1;align=center;verticalAlign=middle;resizable=0;points=[];autosize=1;strokeColor=none;fillColor=none;" vertex="1" parent="1"><mxGeometry x="-788.1800000000001" y="2130" width="300" height="30" as="geometry"/></mxCell><mxCell id="54" value="" style="endArrow=classic;html=1;rounded=0;exitX=0.25;exitY=0;exitDx=0;exitDy=0;entryX=0.75;entryY=0;entryDx=0;entryDy=0;" edge="1" parent="1"><mxGeometry width="50" height="50" relative="1" as="geometry"><mxPoint x="-1966.9099999999999" y="2215" as="sourcePoint"/><mxPoint x="-1901.9099999999999" y="2215" as="targetPoint"/><Array as="points"><mxPoint x="-1966.2599999999998" y="2180"/><mxPoint x="-1966" y="2170"/><mxPoint x="-1900" y="2170"/></Array></mxGeometry></mxCell><mxCell id="55" value="displayEditForm(classDetail)" style="text;html=1;align=center;verticalAlign=middle;resizable=0;points=[];autosize=1;strokeColor=none;fillColor=none;" vertex="1" parent="1"><mxGeometry x="-2024.54" y="2125" width="180" height="30" as="geometry"/></mxCell></root></mxGraphModel></diagram></mxfile>